<svg width="20" height="20" viewBox="0 0 20 20" fill="none" xmlns="http://www.w3.org/2000/svg">
<g id="case manager">
<path id="Path" d="M6.66675 14.9998V13.8887C6.66675 12.6614 7.66167 11.6665 8.88897 11.6665H11.1112C12.3385 11.6665 13.3334 12.6614 13.3334 13.8887V14.9998" stroke="#7367F0" stroke-width="1.5" stroke-linecap="round" stroke-linejoin="round"/>
<path id="Vector" d="M15.4084 11.08H15.9623H17.3145C17.4631 11.08 17.5834 10.96 17.5834 10.8112V8.84261C17.5834 8.69405 17.4634 8.57374 17.3145 8.57374H15.9498H15.4092L15.2383 8.06091C15.1912 7.9197 15.1425 7.7858 15.0922 7.66995L15.0877 7.65976L15.0836 7.64945C15.0342 7.52599 14.9731 7.40274 14.8953 7.2472L14.6535 6.7637L15.0358 6.38146L15.9981 5.41919C16.1014 5.31586 16.1014 5.14922 15.9981 5.04589L14.6081 3.65595L15.1255 3.13856L14.6081 3.65595C14.5048 3.55262 14.3381 3.55262 14.2348 3.65595L13.5493 4.34149C13.1443 4.74649 12.5629 4.81188 12.1002 4.63003C12.0663 4.61713 12.0332 4.60351 12.0105 4.59417L12.007 4.59272C11.9778 4.58071 11.9625 4.57448 11.9506 4.57001L11.9421 4.56682L11.9421 4.56677C11.4525 4.37636 11.0803 3.90126 11.0803 3.32688V2.68537C11.0803 2.53682 10.9602 2.4165 10.8114 2.4165H8.84285C8.6943 2.4165 8.57398 2.53656 8.57398 2.68537V3.42122C8.57398 3.97166 8.23875 4.42032 7.79514 4.63036C7.79152 4.63232 7.78816 4.63409 7.78511 4.6357C7.76526 4.64611 7.74771 4.65449 7.73688 4.65958L7.71274 4.67079C7.71172 4.67127 7.71095 4.67163 7.71041 4.67188L7.69761 4.67828L7.68204 4.6852C7.19604 4.9012 6.60154 4.83017 6.18862 4.41885L5.66162 3.89811L5.65842 3.89496L5.65843 3.89495C5.5551 3.79161 5.38846 3.79161 5.28513 3.89495L3.89519 5.28488C3.79186 5.38822 3.79186 5.55485 3.89519 5.65819L4.39205 6.15504M15.4084 11.08L4.39205 6.15504M15.4084 11.08L15.2455 11.6095C15.2029 11.748 15.1544 11.8837 15.0996 12.0361C15.0453 12.1653 14.9874 12.2905 14.9263 12.4076L14.6717 12.8957L15.0609 13.2849L16.0169 14.2409C16.1203 14.3442 16.1203 14.5108 16.0169 14.6142L14.627 16.0041C14.5237 16.1074 14.357 16.1074 14.2537 16.0041L13.2977 15.0481L12.9085 14.6589L12.4205 14.9135C12.2983 14.9772 12.1674 15.0374 12.0324 15.0937L12.0203 15.0987L12.0083 15.1042C11.899 15.1543 11.7697 15.2001 11.6206 15.2478L11.0991 15.4146V15.9621V17.3143C11.0991 17.4631 10.9788 17.5832 10.8303 17.5832H8.86172C8.7129 17.5832 8.59285 17.4629 8.59285 17.3143V16.352C8.59285 15.787 8.23229 15.3168 7.75871 15.1208C7.72527 15.1061 7.69475 15.0935 7.67188 15.0841L7.6693 15.0831C7.64147 15.0716 7.62401 15.0644 7.60658 15.0566L7.59855 15.053L7.59043 15.0497C7.12812 14.857 6.53452 14.9016 6.11126 15.3249L5.66472 15.7714C5.56139 15.8747 5.39475 15.8747 5.29142 15.7714L3.90148 14.3815C3.79815 14.2781 3.79815 14.1115 3.90148 14.0082L3.37115 13.4778L3.90148 14.0082L4.4172 13.4924C4.82251 13.0871 4.8894 12.5087 4.70273 12.0421L4.01131 12.3186L4.70273 12.042L4.68386 11.9949L4.6671 11.953C4.47492 11.4543 3.99813 11.0863 3.42147 11.0863H2.68562C2.5368 11.0863 2.41675 10.966 2.41675 10.8174V8.84889C2.41675 8.70008 2.53706 8.58003 2.68562 8.58003H3.54725C4.03251 8.58003 4.49257 8.30857 4.72118 7.87179C4.73284 7.85268 4.74302 7.83409 4.75187 7.81639C4.79528 7.72957 4.81325 7.65184 4.82154 7.60213C4.82598 7.5755 4.82849 7.55167 4.82992 7.53156C4.83065 7.52137 4.83113 7.5118 4.83142 7.50291L4.83174 7.48997L4.83182 7.48381L4.83184 7.48081L4.83184 7.47932L4.83184 7.47859C4.83184 7.47822 4.83184 7.47785 4.08184 7.47783L4.83184 7.47785L4.83185 7.41096L4.82001 7.34512L4.72113 6.79512C4.68035 6.53752 4.55405 6.31704 4.39205 6.15504M15.4084 11.08L4.39205 6.15504" stroke="#7367F0" stroke-width="1.5" stroke-miterlimit="10" stroke-linecap="round"/>
<ellipse id="Oval" cx="9.99992" cy="8.33317" rx="1.66667" ry="1.66667" stroke="#7367F0" stroke-width="1.5" stroke-linecap="round" stroke-linejoin="round"/>
</g>
</svg>
