<svg width="24" height="24" viewBox="0 0 24 24" fill="none" xmlns="http://www.w3.org/2000/svg">
<g id="excel-icon">
<path id="Vector" d="M19.4464 5.82738L16.1697 2.55067C15.8182 2.19918 15.3417 2 14.8457 2H6.87463C5.83968 2.00391 5 2.84359 5 3.87854V20.1254C5 21.1603 5.83968 22 6.87463 22H18.1224C19.1574 22 19.9971 21.1603 19.9971 20.1254V7.15524C19.9971 6.65925 19.7979 6.17887 19.4464 5.82738ZM17.9701 7.00293H14.998V4.03085L17.9701 7.00293ZM6.5 20.5V3.5H13.501V7.56268C13.501 8.08211 13.9189 8.5 14.4383 8.5H18.5L18.5 20.5H6.5Z" fill="#7367F0"/>
<path id="Vector_2" d="M14.0295 10.752H15.1543C15.5136 10.752 15.7401 11.1425 15.5566 11.4549C14.9317 12.5289 13.7757 14.4583 13.7483 14.5012L15.5605 17.5475C15.7401 17.8599 15.5175 18.2505 15.1543 18.2505H14.0295C13.8577 18.2505 13.6976 18.1568 13.6155 18.0044C12.729 16.372 13.0805 16.9304 12.4986 15.751C12.2799 16.247 12.2291 16.4422 11.3816 18.0044C11.2996 18.1568 11.1434 18.2505 10.9715 18.2505H9.84285C9.47964 18.2505 9.25312 17.8599 9.43668 17.5475L11.2449 14.5012L9.43668 11.4549C9.25702 11.1425 9.47964 10.752 9.84285 10.752H10.9715C11.1434 10.752 11.3035 10.8457 11.3855 10.998C12.233 12.5758 11.9596 12.115 12.5025 13.2515C12.7524 12.6539 12.9165 12.2907 13.6195 10.998C13.7015 10.8457 13.8577 10.752 14.0295 10.752Z" fill="#7367F0"/>
</g>
</svg>
