<svg width="20" height="20" viewBox="0 0 20 20" fill="none" xmlns="http://www.w3.org/2000/svg">
<g id="history">
<path id="Path" d="M10 6.66699V10.0003L11.6667 11.667" stroke="#7367F0" stroke-width="1.5" stroke-linecap="round" stroke-linejoin="round"/>
<path id="Shape" d="M1.79561 9.09073C1.75363 9.50281 2.05366 9.87089 2.46574 9.91287C2.87783 9.95485 3.24591 9.65482 3.28789 9.24273L1.79561 9.09073ZM3.66289 12.2427C3.52077 11.8537 3.09015 11.6535 2.70108 11.7956C2.31202 11.9377 2.11182 12.3683 2.25394 12.7574L3.66289 12.2427ZM1.79175 16.6668C1.79175 17.081 2.12753 17.4168 2.54175 17.4168C2.95596 17.4168 3.29175 17.081 3.29175 16.6668H1.79175ZM2.54175 12.5001V11.7501C2.12753 11.7501 1.79175 12.0859 1.79175 12.5001H2.54175ZM6.70842 13.2501C7.12263 13.2501 7.45842 12.9143 7.45842 12.5001C7.45842 12.0859 7.12263 11.7501 6.70842 11.7501V13.2501ZM3.28789 9.24273C3.63584 5.82682 6.49268 3.21642 9.92605 3.17721L9.90891 1.6773C5.71258 1.72523 2.22088 4.91572 1.79561 9.09073L3.28789 9.24273ZM9.92605 3.17721C13.3594 3.13799 16.2751 5.68246 16.701 9.08953L18.1894 8.90348C17.6689 4.73928 14.1052 1.62937 9.90891 1.6773L9.92605 3.17721ZM16.701 9.08953C17.1269 12.4966 14.9272 15.6805 11.5898 16.4876L11.9425 17.9456C16.0215 16.9591 18.71 13.0677 18.1894 8.90348L16.701 9.08953ZM11.5898 16.4876C8.25247 17.2948 4.84097 15.4679 3.66289 12.2427L2.25394 12.7574C3.69383 16.6993 7.86344 18.9321 11.9425 17.9456L11.5898 16.4876ZM3.29175 16.6668V12.5001H1.79175V16.6668H3.29175ZM2.54175 13.2501H6.70842V11.7501H2.54175V13.2501Z" fill="#7367F0"/>
</g>
</svg>
