<svg width="24" height="24" viewBox="0 0 24 24" fill="none" xmlns="http://www.w3.org/2000/svg">
<g id="Pdf-icon">
<path id="Vector" d="M12.9112 13.3929L12.9176 13.3616C13.0412 12.8281 13.1967 12.1629 13.0753 11.5603C12.9943 11.0848 12.6598 10.8996 12.3743 10.8862C12.0376 10.8705 11.7372 11.0714 11.6626 11.3638C11.522 11.8996 11.6477 12.6317 11.8778 13.5647C11.5881 14.2879 11.1257 15.3393 10.7869 15.9643C10.1562 16.3058 9.31037 16.8326 9.18466 17.4978C9.15909 17.6205 9.18892 17.7768 9.25923 17.9174C9.33807 18.0737 9.46378 18.1942 9.6108 18.2522C9.67472 18.2768 9.75142 18.2969 9.84091 18.2969C10.2159 18.2969 10.8232 17.9799 11.6328 16.5246C11.7564 16.4821 11.8842 16.4375 12.0078 16.3929C12.5874 16.1875 13.1882 15.9732 13.7315 15.8772C14.3324 16.2143 15.0163 16.4308 15.4808 16.4308C15.9411 16.4308 16.1222 16.1451 16.1903 15.9732C16.3097 15.6719 16.2521 15.2924 16.0582 15.0893C15.777 14.7991 15.093 14.7232 14.0277 14.8616C13.5036 14.5268 13.1605 14.0714 12.9112 13.3929ZM10.5739 16.7835C10.2777 17.2344 10.054 17.4598 9.93253 17.558C10.0753 17.2835 10.3544 16.9933 10.5739 16.7835ZM12.4403 11.5268C12.5511 11.7254 12.5362 12.3259 12.451 12.6295C12.3466 12.1853 12.3317 11.5558 12.3935 11.4821C12.4105 11.4844 12.4254 11.4978 12.4403 11.5268ZM12.4062 14.2165C12.6342 14.6295 12.9219 14.9844 13.2393 15.2478C12.7791 15.3571 12.3594 15.5379 11.9844 15.6987C11.8949 15.7366 11.8075 15.7746 11.7223 15.8103C12.0057 15.2723 12.2422 14.6629 12.4062 14.2165ZM15.7216 15.6786C15.7237 15.683 15.7259 15.6897 15.7131 15.6987H15.7088L15.7045 15.7054C15.6875 15.7165 15.5128 15.8237 14.7607 15.5134C15.6257 15.471 15.7195 15.6763 15.7216 15.6786ZM19.7997 7.01339L15.2145 2.20982C15.0866 2.07589 14.9141 2 14.733 2H5.68182C5.30469 2 5 2.3192 5 2.71429V21.2857C5 21.6808 5.30469 22 5.68182 22H19.3182C19.6953 22 20 21.6808 20 21.2857V7.52009C20 7.33036 19.9276 7.14732 19.7997 7.01339ZM18.4276 7.84821H14.4176V3.64732L18.4276 7.84821ZM18.4659 20.3929H6.53409V3.60714H12.9688V8.42857C12.9688 8.67721 13.063 8.91567 13.2309 9.09148C13.3987 9.2673 13.6263 9.36607 13.8636 9.36607H18.4659V20.3929Z" fill="#7367F0"/>
</g>
</svg>
