<svg width="20" height="20" viewBox="0 0 20 20" fill="none" xmlns="http://www.w3.org/2000/svg">
<g id="gas-station">
<path id="Path" d="M11.6667 9.16667H12.5001C13.4206 9.16667 14.1667 9.91286 14.1667 10.8333V13.3333C14.1667 14.0237 14.7264 14.5833 15.4167 14.5833C16.1071 14.5833 16.6667 14.0237 16.6667 13.3333V7.5L14.1667 5" stroke="#7367F0" stroke-width="1.5" stroke-linecap="round" stroke-linejoin="round"/>
<path id="Path_2" d="M3.3335 16.6663V4.99967C3.3335 4.0792 4.07969 3.33301 5.00016 3.33301H10.0002C10.9206 3.33301 11.6668 4.0792 11.6668 4.99967V16.6663" stroke="#7367F0" stroke-width="1.5" stroke-linecap="round" stroke-linejoin="round"/>
<path id="Path_3" d="M2.50012 16.6667H12.5001" stroke="#7367F0" stroke-width="1.5" stroke-linecap="round" stroke-linejoin="round"/>
<path id="Path_4" d="M15.0001 5.83301V6.66634C15.0001 7.12658 15.3732 7.49967 15.8335 7.49967H16.6668" stroke="#7367F0" stroke-width="1.5" stroke-linecap="round" stroke-linejoin="round"/>
<path id="Path_5" d="M3.3335 9.16667H11.6668" stroke="#7367F0" stroke-width="1.5" stroke-linecap="round" stroke-linejoin="round"/>
</g>
</svg>
