<svg width="22" height="22" viewBox="0 0 22 22" fill="none" xmlns="http://www.w3.org/2000/svg">
<g id="Trip-management">
<g id="Path">
<path fill-rule="evenodd" clip-rule="evenodd" d="M7.57833 6.63893C8.23387 5.9875 8.43005 5.00766 8.0754 4.15637C7.72074 3.30508 6.8851 2.75 5.95817 2.75C5.03124 2.75 4.1956 3.30508 3.84094 4.15637C3.48629 5.00766 3.68247 5.9875 4.33801 6.63893L5.95817 8.25L7.57833 6.63893V6.63893Z" stroke="#4B465C" stroke-width="1.5" stroke-linecap="round" stroke-linejoin="round"/>
<path fill-rule="evenodd" clip-rule="evenodd" d="M7.57833 6.63893C8.23387 5.9875 8.43005 5.00766 8.0754 4.15637C7.72074 3.30508 6.8851 2.75 5.95817 2.75C5.03124 2.75 4.1956 3.30508 3.84094 4.15637C3.48629 5.00766 3.68247 5.9875 4.33801 6.63893L5.95817 8.25L7.57833 6.63893V6.63893Z" stroke="white" stroke-opacity="0.1" stroke-width="1.5" stroke-linecap="round" stroke-linejoin="round"/>
</g>
<g id="Path_2">
<path d="M5.95833 5.03725V5.04641" stroke="#4B465C" stroke-width="1.5" stroke-linecap="round" stroke-linejoin="round"/>
<path d="M5.95833 5.03725V5.04641" stroke="white" stroke-opacity="0.1" stroke-width="1.5" stroke-linecap="round" stroke-linejoin="round"/>
</g>
<g id="Path_3">
<path fill-rule="evenodd" clip-rule="evenodd" d="M18.5783 15.8054C19.2339 15.154 19.4301 14.1742 19.0754 13.3229C18.7207 12.4716 17.8851 11.9165 16.9582 11.9165C16.0312 11.9165 15.1956 12.4716 14.8409 13.3229C14.4863 14.1742 14.6825 15.154 15.338 15.8054L16.9582 17.4165L18.5783 15.8054Z" stroke="#4B465C" stroke-width="1.5" stroke-linecap="round" stroke-linejoin="round"/>
<path fill-rule="evenodd" clip-rule="evenodd" d="M18.5783 15.8054C19.2339 15.154 19.4301 14.1742 19.0754 13.3229C18.7207 12.4716 17.8851 11.9165 16.9582 11.9165C16.0312 11.9165 15.1956 12.4716 14.8409 13.3229C14.4863 14.1742 14.6825 15.154 15.338 15.8054L16.9582 17.4165L18.5783 15.8054Z" stroke="white" stroke-opacity="0.1" stroke-width="1.5" stroke-linecap="round" stroke-linejoin="round"/>
</g>
<g id="Path_4">
<path d="M16.9583 14.2038V14.2129" stroke="#4B465C" stroke-width="1.5" stroke-linecap="round" stroke-linejoin="round"/>
<path d="M16.9583 14.2038V14.2129" stroke="white" stroke-opacity="0.1" stroke-width="1.5" stroke-linecap="round" stroke-linejoin="round"/>
</g>
<g id="Vector 1">
<path d="M5.52538 10.0835C5.98348 10.0835 5.08502 10.0835 8.274 10.0835C11.463 10.0835 11.4807 12.1205 11.4807 12.1205C11.4807 12.1205 11.9211 14.6668 9.19021 14.6668C6.45933 14.6668 6.88208 14.6668 4.59152 14.6668C2.30096 14.6668 1.38475 19.2502 6.44158 19.2502C11.4984 19.2502 22.4484 19.2502 12.3969 19.2502" stroke="#4B465C" stroke-width="1.5"/>
<path d="M5.52538 10.0835C5.98348 10.0835 5.08502 10.0835 8.274 10.0835C11.463 10.0835 11.4807 12.1205 11.4807 12.1205C11.4807 12.1205 11.9211 14.6668 9.19021 14.6668C6.45933 14.6668 6.88208 14.6668 4.59152 14.6668C2.30096 14.6668 1.38475 19.2502 6.44158 19.2502C11.4984 19.2502 22.4484 19.2502 12.3969 19.2502" stroke="white" stroke-opacity="0.1" stroke-width="1.5"/>
</g>
</g>
</svg>
