<svg width="24" height="24" viewBox="0 0 24 24" fill="none" xmlns="http://www.w3.org/2000/svg">
<g id="Word-icon">
<path id="Vector" d="M19.4464 5.82738L16.1697 2.55067C15.8182 2.19918 15.3417 2 14.8457 2H6.87463C5.83968 2.00391 5 2.84359 5 3.87854V20.1254C5 21.1603 5.83968 22 6.87463 22H18.1224C19.1574 22 19.9971 21.1603 19.9971 20.1254V7.15524C19.9971 6.65925 19.7979 6.17887 19.4464 5.82738ZM17.9701 7.00293H14.998V4.03085L17.9701 7.00293ZM6.5 20.5V3.5H13.501V7.56268C13.501 8.08211 13.9189 8.5 14.4383 8.5H18.5L18.5 20.5H6.5ZM15.4706 12.002C15.248 12.002 15.0566 12.1582 15.0137 12.373C14.2091 16.1886 14.2169 16.0988 14.1935 16.4152C14.1857 16.3683 14.1779 16.3136 14.1662 16.2472C14.1349 16.048 14.1779 16.255 13.2445 12.3613C13.1937 12.1504 13.0062 12.002 12.7875 12.002H12.2681C12.0533 12.002 11.8658 12.1504 11.8112 12.3574C10.8582 16.2238 10.8739 16.1144 10.8426 16.4073C10.8387 16.3644 10.8348 16.3097 10.8231 16.2433C10.7957 16.0402 10.2724 13.3806 10.0771 12.3769C10.0342 12.1582 9.8428 11.998 9.61629 11.998H8.96016C8.65554 11.998 8.43292 12.2831 8.50322 12.5761C8.81566 13.8492 9.54599 16.8526 9.79984 17.8875C9.85062 18.0984 10.0381 18.2429 10.2568 18.2429H11.241C11.4558 18.2429 11.6432 18.0984 11.694 17.8875L12.3931 15.099C12.4517 14.8569 12.4907 14.6303 12.5103 14.4234L12.6235 15.099C12.6274 15.1146 13.1156 17.0713 13.3226 17.8875C13.3734 18.0945 13.5608 18.2429 13.7756 18.2429H14.7403C14.9551 18.2429 15.1426 18.0984 15.1933 17.8875C16.0057 14.6889 16.3728 13.24 16.5407 12.5761C16.6149 12.2792 16.3923 11.9941 16.0877 11.9941H15.4706V12.002Z" fill="#7367F0"/>
</g>
</svg>
