<svg width="89" height="25" viewBox="0 0 89 25" fill="none" xmlns="http://www.w3.org/2000/svg">
<g id="Group 1">
<path id="Vector 1" d="M6.53467 23.1259L3.11893 21.1592L11.1385 2.55176H30.8904L35.0487 9.05681L36.3853 8.30041L38.7615 2.55176L67.127 3.0056L71.5824 6.48505L75.2951 3.0056L83.6117 4.06456L76.6317 12.6875L83.6117 21.9156L76.1862 23.1259L71.5824 18.2849L67.5726 22.5208H42.4743L19.6036 22.0669L18.1185 19.4952L15.2968 18.7388L11.7325 19.4952L9.35638 22.0669L6.53467 23.1259Z" fill="#7367F0"/>
<path id="Vector" d="M14.7026 7.72555L16.9896 13.3834H12.4155L14.7026 7.72555ZM62.3745 7.9676H53.553V10.4789H62.226V14.2306H53.553V17.0142H62.3745V19.2531L68.5228 12.4758L62.3745 5.39583V7.9676ZM20.6727 0.88768H32.5238L35.1673 6.7271L37.6029 0.857422H68.3446L71.5525 4.4579L74.8494 0.857422H88.9579L78.5325 12.506L88.8688 24.0638H74.5227L71.3148 20.4634L67.9882 24.0638H17.851L16.3956 20.4634H13.0392L11.5838 24.0638H0L9.7423 0.857422H19.9004L20.6727 0.88768ZM46.365 4.15534H39.7118L35.2564 14.8357L30.4447 4.15534H23.8508V18.6783L17.7322 4.15534H11.8215L4.75234 20.7962H9.35617L10.8116 17.1957H18.5638L20.0192 20.7962H28.0982V8.90554L33.2961 20.7962H36.8307L41.9988 8.9358V20.7962H46.3353L46.365 4.15534ZM74.0474 12.506L81.5621 4.15534H76.1563L71.4039 9.35938L66.8001 4.15534H49.3353V20.8264H66.5625L71.3446 15.5619L75.9484 20.8264H81.5027L74.0474 12.506Z" fill="#FEFEFE"/>
</g>
</svg>
